<mxfile host="app.diagrams.net" modified="2024-02-06T18:17:18.430Z" agent="Mozilla/5.0 (X11; Linux x86_64; rv:122.0) Gecko/20100101 Firefox/122.0" etag="M7xe48RYBRUh3evGLR1Y" version="23.1.1" type="github">
  <diagram name="Page-1" id="XHu4iE8wf_f4JIqgOGkq">
    <mxGraphModel dx="1434" dy="759" grid="1" gridSize="10" guides="1" tooltips="1" connect="1" arrows="1" fold="1" page="1" pageScale="1" pageWidth="827" pageHeight="1169" math="0" shadow="0">
      <root>
        <mxCell id="0" />
        <mxCell id="1" parent="0" />
      </root>
    </mxGraphModel>
  </diagram>
</mxfile>
